<svg xmlns="http://www.w3.org/2000/svg" width="634.286" height="180" viewBox="0 0 634.286 180"><g transform="translate(-4940 21523)"><rect width="634.286" height="180" transform="translate(4940 -21523)" fill="none"/><g transform="translate(4966.786 -21497.285)"><path d="M527.875,99.008A63.917,63.917,0,0,0,493.89,64.75a61.266,61.266,0,0,0-24.841-5.05,62.094,62.094,0,0,0-25.114,5.05A63.918,63.918,0,0,0,409.95,99.008a64.294,64.294,0,0,0,0,49.954A68.039,68.039,0,0,0,423.6,169.436a66.12,66.12,0,0,0,20.337,13.785,62.094,62.094,0,0,0,25.114,5.05,63.624,63.624,0,0,0,24.841-5.05,66.988,66.988,0,0,0,20.337-13.785,65.254,65.254,0,0,0,13.649-70.428Zm-11.738,24.841a45.8,45.8,0,0,1-3.685,18.426,47.119,47.119,0,0,1-25.114,25.114,46.1,46.1,0,0,1-18.289,3.685,46.94,46.94,0,0,1-18.562-3.685,48.286,48.286,0,0,1-15.15-10.1,47.672,47.672,0,0,1-10.1-15.014,47.907,47.907,0,0,1,0-36.852,47.672,47.672,0,0,1,10.1-15.014,47.666,47.666,0,0,1,33.712-13.785,46.1,46.1,0,0,1,18.289,3.685,47.119,47.119,0,0,1,25.114,25.114A46.278,46.278,0,0,1,516.137,123.849Z" transform="translate(48.648 -59.7)" fill="#333137"/><path d="M178.651,176.124h0L126.1,59.7,73.419,176.124h0A8.911,8.911,0,0,0,72.6,179.4a7.776,7.776,0,0,0,7.78,7.78,7.555,7.555,0,0,0,6.824-4.095h0l.273-.546V182.4l38.353-83.53,38.353,83.53v.136l.273.546h0a7.873,7.873,0,0,0,6.824,4.095,7.776,7.776,0,0,0,7.78-7.78A3.945,3.945,0,0,0,178.651,176.124Z" transform="translate(-72.6 -59.7)" fill="#333137"/><path d="M259.259,171.583H209.987V123.676h29.891a7.78,7.78,0,0,0,0-15.56H209.987V75.36h43.4a7.781,7.781,0,0,0,0-15.56H202.48a7.776,7.776,0,0,0-7.78,7.78V179.5a7.776,7.776,0,0,0,7.78,7.78h56.779a7.776,7.776,0,0,0,7.78-7.78A7.985,7.985,0,0,0,259.259,171.583Z" transform="translate(-28.049 -59.664)" fill="#333137"/><path d="M365.922,140.055a7.776,7.776,0,0,0-7.78-7.78,7.555,7.555,0,0,0-6.824,4.095h0l-6.688,11.738-38.353-83.53v-.136L306,63.895h0A7.873,7.873,0,0,0,299.18,59.8a7.776,7.776,0,0,0-7.78,7.78,6.485,6.485,0,0,0,.819,3.276h0L344.9,187.279l20.61-43.949h0A23.866,23.866,0,0,0,365.922,140.055Z" transform="translate(7.235 -59.664)" fill="#333137"/><path d="M380.579,67.716a7.868,7.868,0,0,0-7.643-7.916,8.087,8.087,0,0,0-6.961,3.958h0l-.273.409c0,.136-.136.136-.136.273l-20.883,44.768h0a7.44,7.44,0,0,0-.682,3,7.868,7.868,0,0,0,7.643,7.916,7.7,7.7,0,0,0,7.1-4.5h0L379.76,70.992h0A6.484,6.484,0,0,0,380.579,67.716Z" transform="translate(26.427 -59.664)" fill="#e8c432"/></g></g></svg>